# xmcd
#
# Track frame offsets:
#	150
#	16731
#	39472
#	56390
#	71999
#	87965
#	108614
#	127574
#
# Disc length: 2096 seconds
#
# Revision: 0
# Processed by: cddbd v1.5.2PL0 Copyright (c) Steve Scherf et al.
# Submitted via: audiograbber 1.83.01
#
DISCID=5e082e08
DTITLE=Golden Earring - Complete Studio Recordings [CD 13) - Grab It For A Seco
DTITLE=nd [remastered 2017]
DYEAR=1978
DGENRE=Rock
TTITLE0=Roxanne
TTITLE1=Leather
TTITLE2=Tempting
TTITLE3=U-Turn Time
TTITLE4=Movin' Down Life
TTITLE5=Against The Grain
TTITLE6=Grab It For A Second
TTITLE7=Cell-29
EXTD=
EXTT0=
EXTT1=
EXTT2=
EXTT3=
EXTT4=
EXTT5=
EXTT6=
EXTT7=
PLAYORDER=
